<svg width="207" height="37" viewBox="0 0 207 37" fill="none" xmlns="http://www.w3.org/2000/svg">
<path d="M38.6229 28.2811C37.1047 28.2811 35.9426 27.8501 35.1367 26.9879C34.3307 26.1257 33.9278 24.9074 33.9278 23.333V12.987C33.9278 11.4126 34.3307 10.1943 35.1367 9.33211C35.9426 8.46994 37.1047 8.03886 38.6229 8.03886C40.141 8.03886 41.3031 8.46994 42.109 9.33211C42.915 10.1943 43.3179 11.4126 43.3179 12.987V23.333C43.3179 24.9074 42.915 26.1257 42.109 26.9879C41.3031 27.8501 40.141 28.2811 38.6229 28.2811ZM38.6229 25.4697C39.6912 25.4697 40.2254 24.8231 40.2254 23.5298V12.7902C40.2254 11.4969 39.6912 10.8503 38.6229 10.8503C37.5545 10.8503 37.0203 11.4969 37.0203 12.7902V23.5298C37.0203 24.8231 37.5545 25.4697 38.6229 25.4697ZM45.6905 8.32H49.5703L52.5785 20.0999H52.6348V8.32H55.39V28H52.213L48.502 13.6336H48.4457V28H45.6905V8.32ZM57.9697 8.32H61.0622V25.1886H66.1509V28H57.9697V8.32ZM67.9151 8.32H71.0077V28H67.9151V8.32ZM73.6049 8.32H77.4847L80.4929 20.0999H80.5492V8.32H83.3044V28H80.1274L76.4164 13.6336H76.3601V28H73.6049V8.32ZM85.8841 8.32H94.3184V11.1314H88.9766V16.3326H93.2219V19.144H88.9766V25.1886H94.3184V28H85.8841V8.32ZM101.162 8.32H105.829C107.423 8.32 108.585 8.69486 109.316 9.44457C110.047 10.1755 110.412 11.3095 110.412 12.8464V13.6336C110.412 14.6457 110.243 15.4704 109.906 16.1077C109.587 16.7449 109.091 17.2041 108.416 17.4853V17.5415C109.953 18.0663 110.721 19.4345 110.721 21.6462V23.333C110.721 24.8512 110.318 26.0133 109.512 26.8192C108.725 27.6064 107.563 28 106.026 28H101.162V8.32ZM105.464 16.3326C106.082 16.3326 106.542 16.1733 106.842 15.8546C107.16 15.536 107.319 15.0018 107.319 14.2521V13.1557C107.319 12.4434 107.188 11.928 106.926 11.6094C106.682 11.2907 106.289 11.1314 105.745 11.1314H104.255V16.3326H105.464ZM106.026 25.1886C106.57 25.1886 106.973 25.048 107.235 24.7669C107.498 24.467 107.629 23.9609 107.629 23.2487V21.5337C107.629 20.6341 107.469 20.0155 107.151 19.6782C106.851 19.3221 106.345 19.144 105.633 19.144H104.255V25.1886H106.026ZM112.81 8.32H115.903V25.1886H120.991V28H112.81V8.32ZM125.255 8.32H129.444L132.649 28H129.557L128.994 24.0921V24.1483H125.48L124.918 28H122.05L125.255 8.32ZM128.629 21.4775L127.251 11.7499H127.195L125.845 21.4775H128.629ZM138.733 28.2811C137.253 28.2811 136.119 27.8594 135.332 27.016C134.563 26.1726 134.179 24.9824 134.179 23.4455V12.8745C134.179 11.3376 134.563 10.1474 135.332 9.304C136.119 8.46057 137.253 8.03886 138.733 8.03886C140.214 8.03886 141.339 8.46057 142.107 9.304C142.894 10.1474 143.288 11.3376 143.288 12.8745V14.955H140.364V12.6777C140.364 11.4594 139.849 10.8503 138.818 10.8503C137.787 10.8503 137.271 11.4594 137.271 12.6777V23.6704C137.271 24.8699 137.787 25.4697 138.818 25.4697C139.849 25.4697 140.364 24.8699 140.364 23.6704V20.6622H143.288V23.4455C143.288 24.9824 142.894 26.1726 142.107 27.016C141.339 27.8594 140.214 28.2811 138.733 28.2811ZM145.419 8.32H148.512V16.6137L152.448 8.32H155.54L151.858 15.5454L155.597 28H152.364L149.749 19.2283L148.512 21.7305V28H145.419V8.32ZM158.073 28.1125C157.51 28.1125 157.032 28.075 156.639 28V25.1886C156.939 25.2635 157.276 25.301 157.651 25.301C158.269 25.301 158.729 25.1511 159.028 24.8512C159.328 24.5326 159.478 24.0546 159.478 23.4174V8.32H162.571V23.333C162.571 24.9449 162.196 26.1445 161.446 26.9317C160.715 27.7189 159.591 28.1125 158.073 28.1125ZM167.453 8.32H171.642L174.847 28H171.754L171.192 24.0921V24.1483H167.678L167.115 28H164.248L167.453 8.32ZM170.827 21.4775L169.449 11.7499H169.393L168.043 21.4775H170.827ZM180.931 28.2811C179.451 28.2811 178.317 27.8594 177.529 27.016C176.761 26.1726 176.377 24.9824 176.377 23.4455V12.8745C176.377 11.3376 176.761 10.1474 177.529 9.304C178.317 8.46057 179.451 8.03886 180.931 8.03886C182.412 8.03886 183.536 8.46057 184.305 9.304C185.092 10.1474 185.486 11.3376 185.486 12.8745V14.955H182.562V12.6777C182.562 11.4594 182.046 10.8503 181.016 10.8503C179.985 10.8503 179.469 11.4594 179.469 12.6777V23.6704C179.469 24.8699 179.985 25.4697 181.016 25.4697C182.046 25.4697 182.562 24.8699 182.562 23.6704V20.6622H185.486V23.4455C185.486 24.9824 185.092 26.1726 184.305 27.016C183.536 27.8594 182.412 28.2811 180.931 28.2811ZM187.617 8.32H190.71V16.6137L194.646 8.32H197.738L194.055 15.5454L197.795 28H194.561L191.947 19.2283L190.71 21.7305V28H187.617V8.32Z" fill="black"/>
<rect x="1.75714" y="1.75714" width="203.486" height="33.4857" stroke="black" stroke-width="3.51429"/>
<path d="M18.3248 6.26052C17.7585 7.26404 17.0491 8.1015 14.6148 10.5922C12.0568 13.2201 11.1456 14.3825 10.5142 15.8264C10.1041 16.7649 10 17.2559 10 18.2449C10 18.938 10.026 19.1474 10.1562 19.5083C10.9047 21.6598 13.1503 22.8582 15.3437 22.2806C15.936 22.129 16.8278 21.5948 17.2834 21.1255C17.5177 20.8801 17.7064 20.714 17.7064 20.7429C17.6999 20.9306 17.4982 22.1435 17.3485 22.8943C16.9449 24.9013 16.1964 26.6196 15.3828 27.4137C15.0834 27.7025 14.452 28.0779 14.0615 28.1934C13.9118 28.244 15.4023 28.2656 18.455 28.2656C22.9395 28.2656 23.0632 28.2656 22.7182 28.1429C22.0348 27.8974 21.6052 27.5581 21.065 26.8145C20.2709 25.7099 19.5354 23.3491 19.236 20.9522L19.1905 20.5913L19.5419 20.9667C20.0106 21.4793 20.1538 21.5948 20.6745 21.8836C21.3774 22.2734 21.8526 22.3889 22.7508 22.3889C23.649 22.3889 24.1046 22.2734 24.8661 21.8691C25.504 21.5226 26.3176 20.649 26.617 19.9993C27.4436 18.1655 26.9294 15.9852 25.1005 13.5667C24.5407 12.8303 23.5123 11.704 21.7419 9.89194C19.965 8.07262 19.4834 7.49506 18.5982 6.08003C18.5135 5.95008 18.5005 5.9573 18.3248 6.26052Z" fill="#FD3D3D"/>
</svg>
