<svg width="185" height="309" viewBox="0 0 185 309" fill="none" xmlns="http://www.w3.org/2000/svg">
<path d="M127.9 3.60855C119.2 17.5086 108.3 29.1086 70.9 63.6086C31.6 100.009 17.6 116.109 7.9 136.109C1.6 149.109 0 155.909 0 169.609C0 179.209 0.4 182.109 2.4 187.109C13.9 216.909 48.4 233.509 82.1 225.509C91.2 223.409 104.9 216.009 111.9 209.509C115.5 206.109 118.4 203.809 118.4 204.209C118.3 206.809 115.2 223.609 112.9 234.009C106.7 261.809 95.2 285.609 82.7 296.609C78.1 300.609 68.4 305.809 62.4 307.409C60.1 308.109 83 308.409 129.9 308.409C198.8 308.409 200.7 308.409 195.4 306.709C184.9 303.309 178.3 298.609 170 288.309C157.8 273.009 146.5 240.309 141.9 207.109L141.2 202.109L146.6 207.309C153.8 214.409 156 216.009 164 220.009C174.8 225.409 182.1 227.009 195.9 227.009C209.7 227.009 216.7 225.409 228.4 219.809C238.2 215.009 250.7 202.909 255.3 193.909C268 168.509 260.1 138.309 232 104.809C223.4 94.6086 207.6 79.0086 180.4 53.9086C153.1 28.7086 145.7 20.7086 132.1 1.10855C130.8 -0.691437 130.6 -0.591431 127.9 3.60855Z" fill="#292C31"/>
</svg>
